<svg xmlns="http://www.w3.org/2000/svg" width="19" height="13" viewBox="0 0 19 13">
  <path id="MAIL" d="M1182.95,4899.833l5.784-5.577a.88.88,0,0,1,.265.63v11.227a.878.878,0,0,1-.24.6Zm-12.654-5.6a.887.887,0,0,1,.594-.23h17.219a.887.887,0,0,1,.594.23l-9.2,7.156Zm-.056,12.485a.878.878,0,0,1-.24-.6v-11.227a.88.88,0,0,1,.265-.63l5.784,5.577Zm9.26-3.557,2.415-2.328,6.8,5.925a.887.887,0,0,1-.61.244h-17.219a.887.887,0,0,1-.611-.244l6.8-5.925Z" transform="translate(-1170 -4894)" fill="#323232"/>
</svg>
