<svg xmlns="http://www.w3.org/2000/svg" width="13.997" height="20.999" viewBox="0 0 13.997 20.999">
  <path id="Phone_Auricular._Attribute_as_Freepik_from_Flaticon.com" data-name="Phone Auricular. Attribute as Freepik from Flaticon.com" d="M738.6,4886.965l.993,2.073a1.68,1.68,0,0,1-.532,2.076l-1.159.767a.578.578,0,0,0-.2.708l2.012,4.2,2.082,4.344a.577.577,0,0,0,.288.271,8.6,8.6,0,0,0,1.883-.075l.234-.018a2.162,2.162,0,0,1,2.039,1.225l.638,1.533a1.71,1.71,0,0,1-.7,2.106c-5.286,2.764-7.3-2.288-7.3-2.288l-2.649-5.528-2.58-5.384s-2.68-4.753,2.91-6.881A1.708,1.708,0,0,1,738.6,4886.965Z" transform="translate(-733.003 -4886.002)" fill="#323232"/>
</svg>
