<svg xmlns="http://www.w3.org/2000/svg" width="172" height="172" viewBox="0 0 172 172">
  <g id="Love" transform="translate(-1292 -3527)">
    <g id="Ellipse_2" data-name="Ellipse 2" transform="translate(1292 3527)" fill="none" stroke="#fff" stroke-width="6">
      <circle cx="86" cy="86" r="86" stroke="none"/>
      <circle cx="86" cy="86" r="83" fill="none"/>
    </g>
    <path id="CLOUD_UPLOAD" data-name="CLOUD / UPLOAD" d="M1395,3630a3,3,0,1,1,0-6,8.991,8.991,0,0,0,5.963-15.728q-.288-.255-.6-.485l-.04-.03c-.194-.144-.4-.278-.6-.406l-.1-.058q-.287-.174-.588-.326c-.055-.028-.111-.054-.167-.081-.184-.089-.371-.172-.561-.248-.083-.033-.168-.062-.252-.092-.171-.062-.343-.123-.519-.175-.116-.034-.236-.062-.354-.091-.152-.038-.3-.079-.457-.109s-.328-.053-.493-.075c-.119-.017-.236-.039-.356-.05-.29-.028-.584-.045-.882-.045-.094,0-.185.011-.278.014-.091-.513-.206-1.017-.342-1.512-.033-.121-.078-.237-.114-.357-.112-.375-.227-.749-.364-1.112-.041-.11-.092-.215-.135-.324-.148-.369-.3-.737-.473-1.093-.042-.086-.09-.168-.133-.253-.188-.373-.384-.741-.6-1.1a16.96,16.96,0,0,0-29.125,0c-.214.356-.41.725-.6,1.1-.043.085-.091.167-.133.253-.173.356-.325.724-.473,1.093-.043.109-.094.214-.135.324-.137.363-.252.737-.364,1.112-.036.12-.081.236-.114.357-.136.5-.251,1-.342,1.512-.093,0-.184-.014-.278-.014-.3,0-.592.016-.882.045-.12.011-.237.034-.356.05-.165.022-.331.043-.493.075s-.306.07-.457.109c-.119.029-.238.057-.354.091-.176.052-.348.113-.519.175-.084.031-.169.059-.252.092-.191.076-.377.16-.561.248-.056.027-.112.053-.167.081q-.3.152-.589.326l-.1.058c-.206.128-.406.263-.6.406l-.04.03q-.309.23-.6.485A8.991,8.991,0,0,0,1361,3624a3,3,0,0,1,0,6,15,15,0,0,1-4.387-29.345,22.932,22.932,0,0,1,42.773,0A15,15,0,0,1,1395,3630Zm-28.23-7.007.006-.006.006-.007,8.988-9.987.008.007a2.967,2.967,0,0,1,4.443,0l.008-.007,8.99,9.989,0,0,.008.009h0a2.988,2.988,0,0,1,.756,1.719v.006c.009.092.013.185.013.28v0a3,3,0,0,1-3,3l-.1,0-.059,0-.063,0-.1-.008-.034,0c-.044-.005-.088-.011-.132-.018h0a2.993,2.993,0,0,1-1.742-.953h0l-3.77-4.189V3638a3,3,0,1,1-6,0v-15.182l-3.77,4.189h0a3,3,0,0,1-1.74.953h0c-.043.007-.086.013-.13.018l-.036,0-.1.008-.065.005h-.057l-.1,0a3,3,0,0,1-2.23-5.007Z" fill="#fff"/>
  </g>
</svg>
