<svg xmlns="http://www.w3.org/2000/svg" width="172" height="172" viewBox="0 0 172 172">
  <g id="Love" transform="translate(-875 -3527)">
    <g id="Ellipse_2" data-name="Ellipse 2" transform="translate(875 3527)" fill="none" stroke="#fff" stroke-width="6">
      <circle cx="86" cy="86" r="86" stroke="none"/>
      <circle cx="86" cy="86" r="83" fill="none"/>
    </g>
    <path id="HEART" d="M977.1,3582.04a18.269,18.269,0,0,0-13.542,5.738l-.006.006h0l-2.169,2.722-2.169-2.559-.006-.007h0c-3.817-3.806-8.144-5.9-13.542-5.9a20.136,20.136,0,0,0-14.3,34.39l26.827,26.97a4.5,4.5,0,0,0,6.378,0l26.825-26.969a20.149,20.149,0,0,0-14.3-34.391Z" fill="#fff"/>
  </g>
</svg>
