<?xml version="1.0" standalone="no"?>
<!DOCTYPE svg PUBLIC "-//W3C//DTD SVG 20010904//EN"
 "http://www.w3.org/TR/2001/REC-SVG-20010904/DTD/svg10.dtd">
<svg version="1.0" xmlns="http://www.w3.org/2000/svg"
 width="1244.000000pt" height="161.000000pt" viewBox="0 0 1244.000000 161.000000"
 preserveAspectRatio="xMidYMid meet">
<metadata>
Created by potrace 1.16, written by Peter Selinger 2001-2019
</metadata>
<g transform="translate(0.000000,161.000000) scale(0.100000,-0.100000)"
fill="#000000" stroke="none">
<path d="M2 924 l3 -687 23 -15 c21 -14 22 -14 22 22 0 29 -4 36 -20 36 -31 0
-24 13 25 48 38 27 45 37 45 66 0 28 4 34 25 38 16 4 29 0 34 -10 7 -13 14
-11 45 13 l36 27 105 -77 105 -76 65 46 65 47 36 -27 c33 -25 36 -26 48 -10
21 29 51 15 52 -24 1 -42 25 -61 75 -61 28 0 38 5 42 19 4 16 15 20 63 23 56
3 59 4 62 31 2 15 9 27 18 27 9 0 14 11 14 30 0 25 -4 30 -25 30 -36 0 -31 11
25 49 46 30 50 37 50 72 0 35 3 39 25 39 14 0 28 -7 31 -15 5 -11 13 -9 44 11
24 16 44 23 52 18 7 -4 62 -44 123 -89 99 -72 107 -80 82 -83 l-27 -3 0 -135
0 -134 45 0 45 0 0 50 c0 43 -3 50 -20 50 -11 0 -20 4 -20 8 0 6 154 120 198
146 8 5 26 -3 47 -18 39 -30 45 -32 45 -11 0 9 9 15 25 15 22 0 25 -4 25 -33
0 -50 14 -57 107 -57 82 0 83 0 83 25 0 16 -6 25 -15 25 -24 0 -17 16 20 44
26 20 35 35 35 57 0 22 5 29 19 29 11 0 23 -5 26 -10 4 -7 17 -4 35 7 29 17
29 17 97 -30 37 -26 79 -56 92 -66 l24 -19 -21 -11 c-29 -16 -28 -39 3 -51 14
-5 25 -16 25 -25 0 -19 60 -21 61 -2 1 6 2 23 2 37 2 22 8 26 47 30 44 5 45 6
48 43 2 28 0 37 -12 37 -28 0 -16 26 21 48 13 6 33 12 46 12 12 0 30 9 40 20
21 25 39 25 62 0 10 -11 29 -20 42 -20 13 0 33 -6 46 -13 37 -20 49 -47 22
-47 -12 0 -15 -14 -15 -65 l0 -66 73 3 72 3 3 58 c3 52 1 59 -18 64 -11 3 -19
11 -17 17 4 13 187 146 201 146 5 0 24 -12 43 -26 28 -21 34 -23 39 -10 3 9
17 16 30 16 21 0 24 -5 24 -39 0 -43 10 -51 66 -51 l34 0 0 70 c0 56 -3 70
-15 70 -8 0 -15 4 -15 9 0 9 165 131 176 131 3 0 19 -9 36 -21 28 -20 30 -20
42 -3 19 26 46 11 46 -26 0 -21 9 -39 28 -56 22 -20 25 -26 12 -33 -12 -7 -14
-30 -12 -125 l3 -116 77 -55 c66 -47 83 -55 122 -55 35 0 48 -5 59 -22 11 -18
11 -22 -3 -30 -9 -5 -16 -20 -16 -33 0 -22 4 -25 40 -25 l40 0 0 254 c0 191
-3 255 -12 258 -7 3 20 24 60 48 73 43 73 43 107 27 61 -29 120 -70 107 -75
-8 -2 -12 -31 -12 -93 l0 -90 68 3 67 3 3 124 c2 78 -1 128 -8 136 -9 11 5 23
61 55 64 38 74 41 95 29 19 -10 27 -10 36 -1 18 18 28 14 28 -10 0 -12 12 -32
27 -44 23 -18 25 -24 15 -37 -9 -11 -12 -60 -10 -183 l3 -169 125 -5 125 -5
-3 -70 -4 -70 36 -18 c20 -9 39 -17 41 -17 3 0 5 158 5 350 0 302 -2 351 -15
356 -23 9 -19 54 4 54 10 0 21 7 25 15 8 22 181 22 190 0 4 -10 20 -15 51 -15
51 0 72 -23 42 -45 -15 -10 -17 -34 -17 -164 0 -83 2 -151 5 -151 3 0 31 20
62 44 l56 45 57 -45 c31 -24 59 -44 63 -44 4 0 7 49 7 109 0 88 -3 110 -15
115 -8 3 -15 12 -15 20 0 15 43 48 75 56 14 4 21 16 23 38 3 28 7 33 25 30 16
-2 21 -10 22 -33 0 -44 28 -43 90 4 30 23 62 44 70 47 8 4 39 -13 73 -40 32
-25 68 -46 80 -46 19 0 22 6 22 36 0 31 3 35 23 32 17 -2 23 -11 25 -35 2 -21
9 -33 18 -33 21 0 20 138 -1 146 -9 4 -15 19 -15 40 0 27 4 34 19 34 10 0 21
7 25 15 8 22 184 22 192 0 4 -8 15 -15 25 -15 15 0 19 -7 19 -34 0 -21 -6 -36
-15 -40 -13 -5 -15 -42 -15 -255 0 -224 2 -249 17 -255 10 -4 20 -1 25 9 6 9
23 15 48 15 34 0 40 3 40 21 0 17 5 20 37 17 33 -3 39 -7 43 -33 3 -18 11 -30
20 -30 13 0 15 40 18 281 2 271 3 282 22 287 16 4 20 14 20 51 0 34 4 46 15
46 10 0 15 11 15 35 0 32 2 35 29 35 38 0 40 5 48 85 3 36 10 65 14 65 4 0 9
-33 11 -72 l3 -73 33 -3 c28 -3 32 -7 32 -34 0 -21 6 -31 20 -35 17 -4 20 -14
20 -54 0 -37 4 -49 15 -49 13 0 15 -51 15 -400 0 -220 3 -400 6 -400 3 0 25
14 50 30 l44 31 0 204 c0 176 -2 205 -15 205 -24 0 -18 17 15 40 22 15 30 30
30 51 0 22 5 29 19 29 11 0 21 -5 23 -12 3 -8 14 -5 35 10 17 12 34 22 38 22
13 0 175 -121 175 -131 0 -5 -7 -9 -15 -9 -13 0 -15 -15 -13 -97 l3 -98 182
-60 c120 -40 187 -67 197 -80 20 -26 20 -35 0 -35 -12 0 -14 -10 -12 -53 3
-51 4 -52 36 -55 l32 -3 0 115 c0 100 -2 116 -16 116 -22 0 -17 12 78 169 66
110 79 139 74 163 -4 21 -1 30 10 35 20 7 37 -17 23 -33 -12 -15 -2 -37 97
-200 41 -67 74 -123 74 -126 0 -3 -9 -8 -21 -11 -17 -5 -20 -12 -17 -48 3 -39
6 -43 40 -55 20 -7 58 -16 83 -19 43 -7 45 -6 45 18 0 21 -6 26 -27 29 -27 3
-27 4 22 41 43 33 51 44 55 80 4 37 8 42 33 45 19 2 27 -1 27 -12 0 -23 16
-20 56 10 l34 27 48 -34 c157 -112 202 -145 202 -151 0 -4 -10 -8 -22 -10 -20
-3 -23 -9 -23 -53 l0 -50 62 -3 c55 -3 65 -6 83 -32 25 -35 25 -36 0 -43 -17
-4 -20 -14 -20 -56 l0 -51 45 0 45 0 0 129 0 130 -27 3 c-28 3 -28 3 15 32 37
25 42 33 42 67 0 34 3 39 24 39 13 0 27 -7 30 -16 5 -14 11 -13 40 10 19 14
37 26 40 26 3 0 54 -35 113 -77 87 -63 104 -79 86 -81 -21 -3 -23 -9 -23 -68
l0 -64 70 0 70 0 0 60 c0 45 -4 61 -17 69 -14 8 -15 12 -4 25 7 9 20 16 27 16
8 0 14 5 14 10 0 6 13 10 29 10 16 0 34 7 41 15 16 19 54 19 70 0 7 -8 20 -15
30 -15 21 0 77 -27 86 -42 4 -6 -1 -15 -10 -20 -12 -7 -16 -24 -16 -68 0 -57
1 -59 28 -62 26 -3 27 -6 30 -65 3 -62 3 -63 32 -63 l30 0 0 91 c0 84 -2 91
-21 96 -18 5 -16 8 18 27 32 18 38 27 41 59 3 29 7 37 23 37 14 0 19 -7 19
-25 0 -14 2 -25 5 -25 2 0 38 16 78 36 l73 36 134 -68 c81 -40 128 -69 118
-72 -15 -3 -18 -14 -18 -63 0 -54 2 -60 24 -69 14 -5 26 -19 28 -32 3 -20 9
-23 43 -23 34 0 40 3 43 23 3 16 15 28 43 38 36 15 39 19 39 55 0 28 -4 39
-15 39 -33 0 -10 28 70 83 46 31 89 57 96 57 7 0 21 -8 31 -17 15 -14 21 -15
27 -4 15 24 46 8 49 -24 2 -21 13 -37 37 -54 34 -23 38 -41 9 -41 -30 0 -7
-25 25 -28 43 -4 71 21 71 65 0 26 4 33 20 33 10 0 23 -8 28 -17 9 -15 13 -14
46 11 l36 27 78 -54 77 -55 38 15 c27 11 37 21 37 38 0 12 9 30 20 40 11 10
20 29 20 42 0 14 4 21 10 18 6 -3 10 -14 10 -24 0 -10 6 -24 14 -30 7 -6 16
-24 19 -40 5 -24 16 -32 66 -51 l61 -22 0 -64 c0 -50 3 -64 15 -64 8 0 15 6
15 14 0 7 7 19 15 26 8 7 15 25 15 41 0 27 3 29 40 29 33 0 40 -3 40 -20 0
-23 37 -36 76 -26 20 5 25 12 21 26 -7 28 14 69 38 73 11 2 32 -8 47 -21 l27
-24 29 21 c37 26 37 26 74 0 l29 -21 23 21 c28 26 48 27 71 1 23 -25 37 -25
60 0 21 23 64 27 70 5 3 -8 8 -23 12 -32 3 -10 5 -39 4 -65 l-3 -48 46 0 c44
0 46 1 46 30 0 22 -5 30 -17 30 -13 1 -7 9 20 31 25 21 37 39 37 56 0 22 3 25
27 20 15 -3 37 0 49 5 19 9 34 2 105 -47 73 -52 80 -59 60 -66 -14 -6 -21 -17
-21 -34 0 -35 29 -33 82 5 22 17 45 30 50 30 4 0 27 -14 50 -30 22 -17 49 -30
60 -30 17 0 18 26 18 720 l0 720 -6220 0 -6220 0 2 -686z"/>
</g>
</svg>
